HIERARCHY
ROOT Hips
{
    OFFSET   0.000000   0.000000   0.000000
    CHANNELS 6 Xposition Yposition Zposition Zrotation Xrotation Yrotation
    JOINT Chest
    {
        OFFSET   0.000000   8.007240   0.000000
        CHANNELS 3 Zrotation Xrotation Yrotation
        JOINT Chest2
        {
            OFFSET   0.000000  22.077100   0.000000
            CHANNELS 3 Zrotation Xrotation Yrotation
            JOINT Neck
            {
                OFFSET   0.000000  23.254800   0.000000
                CHANNELS 3 Zrotation Xrotation Yrotation
                JOINT Head
                {
                    OFFSET   0.000000  14.370000   1.956600
                    CHANNELS 3 Zrotation Xrotation Yrotation
                    End Site
                    {
                        OFFSET   0.000000  19.566000   0.000000
                    }
                }
            }
            JOINT LeftCollar
            {
                OFFSET   3.911900  19.017000  -0.467064
                CHANNELS 3 Zrotation Xrotation Yrotation
                JOINT LeftShoulder
                {
                    OFFSET  10.383700   0.000000   0.000000
                    CHANNELS 3 Zrotation Xrotation Yrotation
                    JOINT LeftElbow
                    {
                        OFFSET  26.662100   0.001476   0.000517
                        CHANNELS 3 Zrotation Xrotation Yrotation
                        JOINT LeftWrist
                        {
                            OFFSET  28.869000  -0.000025  -0.000106
                            CHANNELS 3 Zrotation Xrotation Yrotation
                            JOINT LeftFinger0
                            {
                                OFFSET   2.044660  -2.323460   3.252850
                                CHANNELS 3 Zrotation Xrotation Yrotation
                                JOINT LeftFinger01
                                {
                                    OFFSET   3.088130   0.000000   0.000000
                                    CHANNELS 3 Zrotation Xrotation Yrotation
                                    JOINT LeftFinger02
                                    {
                                        OFFSET   2.639460   0.000000   0.000000
                                        CHANNELS 3 Zrotation Xrotation Yrotation
                                        End Site
                                        {
                                            OFFSET   2.582190   0.000000   0.000000
                                        }
                                    }
                                }
                            }
                            JOINT LeftFinger1
                            {
                                OFFSET   8.364480   0.000000   3.252850
                                CHANNELS 3 Zrotation Xrotation Yrotation
                                JOINT LeftFinger11
                                {
                                    OFFSET   4.646930   0.000000   0.000000
                                    CHANNELS 3 Zrotation Xrotation Yrotation
                                    JOINT LeftFinger12
                                    {
                                        OFFSET   2.323460   0.000000   0.000000
                                        CHANNELS 3 Zrotation Xrotation Yrotation
                                        End Site
                                        {
                                            OFFSET   2.273050   0.000000   0.000000
                                        }
                                    }
                                }
                            }
                            JOINT LeftFinger2
                            {
                                OFFSET   8.364490   0.000015   1.078090
                                CHANNELS 3 Zrotation Xrotation Yrotation
                                JOINT LeftFinger21
                                {
                                    OFFSET   5.111620   0.000000   0.000000
                                    CHANNELS 3 Zrotation Xrotation Yrotation
                                    JOINT LeftFinger22
                                    {
                                        OFFSET   2.788160   0.000016   0.000000
                                        CHANNELS 3 Zrotation Xrotation Yrotation
                                        End Site
                                        {
                                            OFFSET   2.727660   0.000000   0.000000
                                        }
                                    }
                                }
                            }
                            JOINT LeftFinger3
                            {
                                OFFSET   7.899780   0.000017  -1.078090
                                CHANNELS 3 Zrotation Xrotation Yrotation
                                JOINT LeftFinger31
                                {
                                    OFFSET   4.646930   0.000000   0.000000
                                    CHANNELS 3 Zrotation Xrotation Yrotation
                                    JOINT LeftFinger32
                                    {
                                        OFFSET   2.323470   0.000000   0.000000
                                        CHANNELS 3 Zrotation Xrotation Yrotation
                                        End Site
                                        {
                                            OFFSET   2.273050   0.000000   0.000000
                                        }
                                    }
                                }
                            }
                            JOINT LeftFinger4
                            {
                                OFFSET   7.435090   0.000000  -3.252850
                                CHANNELS 3 Zrotation Xrotation Yrotation
                                JOINT LeftFinger41
                                {
                                    OFFSET   3.717550   0.000000   0.000000
                                    CHANNELS 3 Zrotation Xrotation Yrotation
                                    JOINT LeftFinger42
                                    {
                                        OFFSET   1.858770   0.000000   0.000000
                                        CHANNELS 3 Zrotation Xrotation Yrotation
                                        End Site
                                        {
                                            OFFSET   1.818440   0.000000   0.000000
                                        }
                                    }
                                }
                            }
                        }
                    }
                }
            }
            JOINT RightCollar
            {
                OFFSET  -3.911900  19.017000  -0.467063
                CHANNELS 3 Zrotation Xrotation Yrotation
                JOINT RightShoulder
                {
                    OFFSET -10.383700   0.000019   0.000000
                    CHANNELS 3 Zrotation Xrotation Yrotation
                    JOINT RightElbow
                    {
                        OFFSET -26.662100   0.001175   0.000102
                        CHANNELS 3 Zrotation Xrotation Yrotation
                        JOINT RightWrist
                        {
                            OFFSET -28.869000   0.000016  -0.000079
                            CHANNELS 3 Zrotation Xrotation Yrotation
                            JOINT RightFinger0
                            {
                                OFFSET  -2.044660  -2.323490   3.252850
                                CHANNELS 3 Zrotation Xrotation Yrotation
                                JOINT RightFinger01
                                {
                                    OFFSET  -3.088140   0.000000   0.000000
                                    CHANNELS 3 Zrotation Xrotation Yrotation
                                    JOINT RightFinger02
                                    {
                                        OFFSET  -2.639460   0.000000   0.000000
                                        CHANNELS 3 Zrotation Xrotation Yrotation
                                        End Site
                                        {
                                            OFFSET  -2.582190   0.000000   0.000000
                                        }
                                    }
                                }
                            }
                            JOINT RightFinger1
                            {
                                OFFSET  -8.364480   0.000000   3.252850
                                CHANNELS 3 Zrotation Xrotation Yrotation
                                JOINT RightFinger11
                                {
                                    OFFSET  -4.646930   0.000000   0.000000
                                    CHANNELS 3 Zrotation Xrotation Yrotation
                                    JOINT RightFinger12
                                    {
                                        OFFSET  -2.323470   0.000000   0.000000
                                        CHANNELS 3 Zrotation Xrotation Yrotation
                                        End Site
                                        {
                                            OFFSET  -2.273050   0.000000   0.000000
                                        }
                                    }
                                }
                            }
                            JOINT RightFinger2
                            {
                                OFFSET  -8.364480   0.000000   1.078090
                                CHANNELS 3 Zrotation Xrotation Yrotation
                                JOINT RightFinger21
                                {
                                    OFFSET  -5.111620   0.000000   0.000000
                                    CHANNELS 3 Zrotation Xrotation Yrotation
                                    JOINT RightFinger22
                                    {
                                        OFFSET  -2.788160   0.000000   0.000000
                                        CHANNELS 3 Zrotation Xrotation Yrotation
                                        End Site
                                        {
                                            OFFSET  -2.727660   0.000000   0.000000
                                        }
                                    }
                                }
                            }
                            JOINT RightFinger3
                            {
                                OFFSET  -7.899780   0.000000  -1.078090
                                CHANNELS 3 Zrotation Xrotation Yrotation
                                JOINT RightFinger31
                                {
                                    OFFSET  -4.646930   0.000000   0.000000
                                    CHANNELS 3 Zrotation Xrotation Yrotation
                                    JOINT RightFinger32
                                    {
                                        OFFSET  -2.323470   0.000000   0.000000
                                        CHANNELS 3 Zrotation Xrotation Yrotation
                                        End Site
                                        {
                                            OFFSET  -2.273050   0.000000   0.000000
                                        }
                                    }
                                }
                            }
                            JOINT RightFinger4
                            {
                                OFFSET  -7.435090   0.000000  -3.252850
                                CHANNELS 3 Zrotation Xrotation Yrotation
                                JOINT RightFinger41
                                {
                                    OFFSET  -3.717550   0.000000   0.000000
                                    CHANNELS 3 Zrotation Xrotation Yrotation
                                    JOINT RightFinger42
                                    {
                                        OFFSET  -1.858770   0.000000   0.000000
                                        CHANNELS 3 Zrotation Xrotation Yrotation
                                        End Site
                                        {
                                            OFFSET  -1.818440   0.000000   0.000000
                                        }
                                    }
                                }
                            }
                        }
                    }
                }
            }
        }
    }
    JOINT LeftHip
    {
        OFFSET   9.783040   0.000000   0.000000
        CHANNELS 3 Zrotation Xrotation Yrotation
        JOINT LeftKnee
        {
            OFFSET   0.000032 -41.789100  -0.002222
            CHANNELS 3 Zrotation Xrotation Yrotation
            JOINT LeftAnkle
            {
                OFFSET   0.000087 -41.133200  -0.000135
                CHANNELS 3 Zrotation Xrotation Yrotation
                JOINT LeftToe
                {
                    OFFSET   0.000000  -6.358960  14.674500
                    CHANNELS 3 Zrotation Xrotation Yrotation
                    End Site
                    {
                        OFFSET   0.000000   0.000000   3.913200
                    }
                }
            }
        }
    }
    JOINT RightHip
    {
        OFFSET  -9.783040   0.000000   0.000000
        CHANNELS 3 Zrotation Xrotation Yrotation
        JOINT RightKnee
        {
            OFFSET   0.000047 -41.789100  -0.000896
            CHANNELS 3 Zrotation Xrotation Yrotation
            JOINT RightAnkle
            {
                OFFSET  -0.000117 -41.133300  -0.000248
                CHANNELS 3 Zrotation Xrotation Yrotation
                JOINT RightToe
                {
                    OFFSET   0.000000  -6.358970  14.674500
                    CHANNELS 3 Zrotation Xrotation Yrotation
                    End Site
                    {
                        OFFSET   0.000000   0.000000   3.913200
                    }
                }
            }
        }
    }
}
MOTION
Frames: 4
Frame Time:   0.016667
 -0.079593  89.513600  -0.466328  -1.968860  -0.734035   1.583650   1.468750   0.851010  -0.761037   2.949160   1.682150  -1.543890  -0.341452   0.243044   0.002972  -0.560950   0.492759   6.568280  -4.743530   3.899160   0.522020 -69.858900  14.979100  -5.670700  -1.487770  -2.773720  -6.198960   4.246780  -8.972130   5.561840  38.119200  25.565900 -66.602000 -20.287700   0.003022   0.001170  -5.143870   0.000175  -0.000940 -28.546400   4.890000  -8.905510 -23.667900   0.001336   0.001702 -16.567500  -0.000570   0.001062 -27.778800   1.411800  -2.677890 -30.850300  -0.004962   0.000386 -20.546300  -0.005055   0.003994 -27.356500   0.163506  -0.316060 -28.523300  -0.004005   0.006139 -18.996500  -0.003806   0.003047 -30.431300   0.062656  -0.106568 -45.647200  -0.002354   0.001748 -30.401000  -0.001941  -0.012250   4.532000   0.531872   7.950890  75.577400   8.953820   2.297610   1.409230  -5.202520   3.917520 -11.785300 -11.195300   8.108970 -43.923000  33.625500  72.932700  21.180200  -0.006798   0.002710   5.590100   0.001653   0.002632  29.870300   6.445160  11.064400  24.948200  -0.001549  -0.002533  17.463800  -0.001717  -0.001436  27.861800   4.662200   8.738170  33.617600  -0.001535  -0.009341  22.389500  -0.009159  -0.002447  28.332900   1.782080   3.299760  35.046600  -0.004265  -0.003150  23.342800  -0.003446  -0.002748  33.913100   0.486619   0.719422  50.874300  -0.000703   0.000645  33.882200  -0.000441  -0.000289   2.183980   4.502620   1.159640   1.349090   0.212884   7.707430  -1.940070  -3.181740   2.954340  -0.000000   0.000000   0.000000   2.035770   0.742584  -3.034440   1.433920   3.667100  -4.750460  -3.329090  -3.356720  -4.832820  -0.000000   0.000000  -0.000000
 -0.083348  89.513600  -0.460231  -1.968870  -0.741352   1.583660   1.470340   0.854073  -0.755160   2.952270   1.688390  -1.532280  -0.350072   0.233587   0.002936  -0.575807   0.473555   6.580440  -4.822950   3.882200   0.413269 -69.762400  14.970800  -5.613720  -1.552280  -2.713130  -6.228550   4.128310  -8.812750   5.514140  38.138300  25.785400 -66.796500 -20.284200   0.003021   0.001192  -5.142110   0.000173  -0.000934 -28.513000   4.879710  -8.899390 -23.639600   0.001333   0.001703 -16.547700  -0.000571   0.001062 -27.776200   1.409380  -2.673620 -30.833300  -0.004963   0.000386 -20.534900  -0.005057   0.003995 -27.345800   0.134511  -0.260124 -28.471800  -0.004005   0.006140 -18.962200  -0.003806   0.003047 -30.403400   0.052148  -0.088891 -45.605300  -0.002354   0.001748 -30.373200  -0.001941  -0.012252   4.539750   0.536441   7.981780  75.548100   8.946850   2.282780   1.405580  -5.166250   3.899310 -11.785400 -11.212800   8.095120 -43.939400  33.638400  72.951400  21.164700  -0.006811   0.002726   5.583560   0.001660   0.002640  29.869000   6.444910  11.076200  24.948200  -0.001545  -0.002533  17.463800  -0.001724  -0.001437  27.859800   4.668590   8.750350  33.616200  -0.001536  -0.009345  22.388500  -0.009164  -0.002447  28.332100   1.789400   3.313360  35.045100  -0.004265  -0.003151  23.341100  -0.003443  -0.002750  33.911500   0.486617   0.720447  50.872000  -0.000702   0.000641  33.880700  -0.000439  -0.000287   2.183600   4.545740   1.157900   1.348080   0.157212   7.712390  -1.935700  -3.159020   2.946410  -0.000000   0.000000  -0.000000   2.045370   0.750130  -3.034390   1.426170   3.667730  -4.758410  -3.329360  -3.361790  -4.828190  -0.000000   0.000000   0.000000
 -0.089349  89.513700  -0.450360  -1.968750  -0.752957   1.583660   1.473130   0.860071  -0.749284   2.957850   1.700510  -1.520680  -0.358691   0.218943   0.002900  -0.589498   0.443787   6.600530  -4.946930   3.865250   0.244204 -69.576500  14.963000  -5.535110  -1.658280  -2.618760  -6.269820   3.930100  -8.461840   5.432460  38.345900  26.104700 -67.053600 -20.262000   0.003020   0.001215  -5.131010   0.000171  -0.000926 -28.433000   4.856340  -8.886650 -23.572200   0.001328   0.001705 -16.500600  -0.000574   0.001064 -27.762600   1.403090  -2.663220 -30.753600  -0.004968   0.000385 -20.481900  -0.005063   0.003999 -27.312600   0.105515  -0.204188 -28.321600  -0.004008   0.006141 -18.862200  -0.003808   0.003047 -30.314600   0.041641  -0.071214 -45.472000  -0.002353   0.001747 -30.284400  -0.001942  -0.012259   4.552980   0.546052   8.036020  75.488200   8.923650   2.259370   1.401740  -5.094310   3.875040 -11.786400 -11.230500   8.073250 -43.954900  33.653700  72.968500  21.149200  -0.006823   0.002741   5.574600   0.001667   0.002652  29.867700   6.444650  11.088000  24.948200  -0.001540  -0.002532  17.463800  -0.001734  -0.001439  27.857000   4.677970   8.768590  33.606800  -0.001537  -0.009355  22.382100  -0.009176  -0.002450  28.330900   1.800940   3.334910  35.035100  -0.004264  -0.003151  23.333400  -0.003441  -0.002756  33.903100   0.486614   0.724043  50.859400  -0.000701   0.000635  33.872300  -0.000438  -0.000283   2.183510   4.588870   1.152660   1.347060   0.101541   7.720590  -1.931420  -3.136300   2.936360   0.000000   0.000000   0.000000   2.055400   0.765651  -3.034290   1.418390   3.668300  -4.777310  -3.329610  -3.371490  -4.816850  -0.000000   0.000000   0.000000
 -0.093900  89.513800  -0.443400  -1.967380  -0.761406   1.588830   1.475400   0.867180  -0.749450   2.962530   1.714740  -1.521070  -0.355911   0.209807   0.002922  -0.585748   0.425109   6.614460  -5.032970   3.883720   0.117162 -69.358700  15.032300  -5.512100  -1.747910  -2.574900  -6.287090   3.740860  -7.977570   5.345930  38.601200  26.282200 -67.106200 -20.190800   0.003023   0.001187  -5.095420   0.000180  -0.000926 -28.304500   4.823410  -8.874060 -23.464500   0.001321   0.001707 -16.425200  -0.000577   0.001070 -27.728500   1.390030  -2.643000 -30.560200  -0.004976   0.000381 -20.353100  -0.005070   0.004005 -27.248400   0.106256  -0.205829 -28.041500  -0.004011   0.006143 -18.675700  -0.003810   0.003048 -30.137900   0.045696  -0.078664 -45.206900  -0.002354   0.001748 -30.107800  -0.001942  -0.012271   4.567280   0.561667   8.086870  75.413800   8.875280   2.243060   1.405710  -5.004280   3.869380 -11.775500 -11.217200   8.060470 -43.954900  33.658700  72.964400  21.152000  -0.006823   0.002715   5.571860   0.001655   0.002661  29.858600   6.444680  11.086600  24.941000  -0.001551  -0.002530  17.458700  -0.001740  -0.001446  27.855500   4.682750   8.778720  33.583500  -0.001536  -0.009369  22.366600  -0.009189  -0.002455  28.330000   1.808610   3.349510  35.010000  -0.004263  -0.003149  23.316600  -0.003444  -0.002764  33.882800   0.490300   0.731279  50.829100  -0.000704   0.000631  33.852100  -0.000442  -0.000278   2.184370   4.583010   1.142240   1.346120   0.127773   7.728060  -1.933470  -3.150390   2.934470   0.000000   0.000000   0.000000   2.056010   0.784731  -3.034150   1.419210   3.664600  -4.807270  -3.329390  -3.382790  -4.798030   0.000000   0.000000   0.000000
